# xmcd
#
# Track frame offsets: 
#        150
#        17725
#        32340
#        45660
#        64482
#        82980
#        102162
#        120300
#        136142
#        152257
#        168172
#        183162
#        199455
#
# Disc length: 2918 seconds
#
# Revision: 0
# Processed by: cddbd v1.5.1PL0 Copyright (c) Steve Scherf et al.
# Submitted via: ExactAudioCopy v0.95a5
#
DISCID=980b640d
DTITLE=Jim Hurst - Open Window
DYEAR=1997
DGENRE=Bluegrass
TTITLE0=Nothing Like A Hundred Miles
TTITLE1=Wheel Hoss
TTITLE2=17 Days
TTITLE3=Swamp Reed
TTITLE4=My Baby's Gone
TTITLE5=Alarm Clock
TTITLE6=Crazy Locomotion Blues
TTITLE7=This Old Guitar
TTITLE8=A Minor Infraction
TTITLE9=I Can Tell You The Time
TTITLE10=The Pearl of Pearl KY
TTITLE11=Tall Pines
TTITLE12=Little Bit O Blues
EXTD=
EXTT0=
EXTT1=
EXTT2=
EXTT3=
EXTT4=
EXTT5=
EXTT6=
EXTT7=
EXTT8=
EXTT9=
EXTT10=
EXTT11=
EXTT12=
PLAYORDER=
